<?xml version="1.0" encoding="UTF-8" standalone="no"?>
<svg width="22px" height="30px" viewBox="0 0 22 30" version="1.1" xmlns="http://www.w3.org/2000/svg" xmlns:xlink="http://www.w3.org/1999/xlink" xmlns:sketch="http://www.bohemiancoding.com/sketch/ns">
    <!-- Generator: Sketch 3.2.2 (9983) - http://www.bohemiancoding.com/sketch -->
    <title>Artboard 2</title>
    <desc>Created with Sketch.</desc>
    <defs></defs>
    <g id="Page-1" stroke="none" stroke-width="1" fill="none" fill-rule="evenodd" sketch:type="MSPage">
        <g id="Artboard-2" sketch:type="MSArtboardGroup" fill="#616161">
            <path d="M16.8125,15.0351562 C17.5937539,15.0481771 18.3489547,15.2565084 19.078125,15.6601562 C20.1588596,16.2721385 20.8554672,17.1575463 21.1679688,18.3164062 C21.2721359,18.6940123 21.3242188,19.0651023 21.3242188,19.4296875 C21.3242188,20.132816 21.1419289,20.8098926 20.7773438,21.4609375 C20.1653615,22.5286512 19.1171949,23.2903623 17.6328125,23.7460938 C17.3593736,24.6575566 16.6953178,25.6341094 15.640625,26.6757812 C13.9088455,28.4336025 11.7929813,29.3125 9.29296875,29.3125 C6.80597715,29.3125 4.70638877,28.4563888 2.99414062,26.7441406 C1.28189248,25.0318925 0.42578125,23.003918 0.42578125,20.6601562 C0.42578125,18.3294154 1.24608555,16.285165 2.88671875,14.5273438 C4.03255781,13.3033793 5.0286416,12.6458338 5.875,12.5546875 C3.98696973,10.5364482 3.04296875,8.66797734 3.04296875,6.94921875 C3.04296875,5.25650195 3.67772803,3.76888662 4.94726562,2.48632812 C6.21680322,1.20376963 7.78905312,0.5625 9.6640625,0.5625 C11.5520928,0.5625 13.1471289,1.22004551 14.4492188,2.53515625 C15.1523473,3.21224297 15.6927064,4.1627543 16.0703125,5.38671875 L12.9453125,6.6171875 C12.5416646,5.56249473 12.1575539,4.85286641 11.7929688,4.48828125 C11.1940074,3.88931992 10.4843791,3.58984375 9.6640625,3.58984375 C8.8567668,3.58984375 8.13737295,3.9055958 7.50585938,4.53710938 C6.8743458,5.16862295 6.55859375,5.97265137 6.55859375,6.94921875 C6.55859375,7.92578613 6.89062168,8.76887666 7.5546875,9.47851562 C8.21875332,10.1881546 8.81119531,10.640624 9.33203125,10.8359375 C9.85286719,11.031251 10.868482,11.1354166 12.3789062,11.1484375 L12.3789062,14.0976562 L10.3085938,14.1367188 C8.1992082,14.5273457 6.60742725,15.3118431 5.53320312,16.4902344 C4.458979,17.6686257 3.921875,19.0585857 3.921875,20.6601562 C3.921875,22.2487059 4.45572383,23.5800728 5.5234375,24.6542969 C6.59115117,25.728521 7.84764902,26.265625 9.29296875,26.265625 C10.7252676,26.265625 11.9882758,25.7187555 13.0820313,24.625 C13.6679717,24.0390596 14.0325514,23.5312521 14.1757812,23.1015625 C13.6809871,22.7890609 13.0104209,22.1966189 12.1640625,21.3242188 C11.7083311,20.8945291 11.4088549,20.6406254 11.265625,20.5625 C11.2005205,20.5234373 11.1419273,20.5039062 11.0898438,20.5039062 C11.0377602,20.5039062 10.998698,20.5104166 10.9726562,20.5234375 C10.88151,20.5494793 10.7968754,20.6276035 10.71875,20.7578125 C10.6406246,20.9140633 10.6015625,21.057291 10.6015625,21.1875 C10.6015625,21.2786463 10.6080729,21.3697912 10.6210938,21.4609375 C10.6861982,21.656251 10.7643225,21.7799477 10.8554688,21.8320312 C10.8815105,21.8450521 10.9466141,21.8515625 11.0507812,21.8515625 L11.0507812,24.859375 L10.8554688,24.859375 C10.2174447,24.859375 9.59245098,24.6966162 8.98046875,24.3710938 C8.09504766,23.8632787 7.52213672,23.1210986 7.26171875,22.1445312 C7.17057246,21.8190088 7.125,21.5000016 7.125,21.1875 C7.125,20.6015596 7.28124844,20.0286486 7.59375,19.46875 C8.14062773,18.5572871 8.93489063,17.9518244 9.9765625,17.6523438 C10.3671895,17.5481766 10.7447898,17.4960938 11.109375,17.4960938 C11.8255244,17.4960938 12.4895803,17.6783836 13.1015625,18.0429688 C13.6223984,18.3294285 14.2669232,18.876298 15.0351563,19.6835938 C15.6080758,20.2044297 16.0117176,20.5299473 16.2460938,20.6601562 C16.4023445,20.7513025 16.5455723,20.796875 16.6757812,20.796875 C16.7539066,20.796875 16.8450516,20.7773439 16.9492188,20.7382812 C17.2486994,20.6601559 17.4895824,20.4713557 17.671875,20.171875 C17.802084,19.9244779 17.8671875,19.6770846 17.8671875,19.4296875 C17.8671875,19.2994785 17.8411461,19.1562508 17.7890625,19 C17.6848953,18.6223939 17.4895848,18.3489592 17.203125,18.1796875 C17.0859369,18.1276039 16.9557299,18.0950521 16.8125,18.0820312 L16.8125,15.0351562 Z" id="&amp;" sketch:type="MSShapeGroup"></path>
        </g>
    </g>
</svg>